/vscmnt/brussel_pixiu_data/_data_brussel/112/vsc11236/PredSimResults/SUBJ07opt3D/trackIG/worker_01.mot
version=1
nRows=7
nColumns=50
inDegrees=yes
endheader
                time	         pelvis_tilt	         pelvis_list	     pelvis_rotation	           pelvis_tx	           pelvis_ty	           pelvis_tz	       hip_flexion_r	     hip_adduction_r	      hip_rotation_r	        knee_angle_r	       ankle_angle_r	         mtp_angle_r	       hip_flexion_l	     hip_adduction_l	      hip_rotation_l	        knee_angle_l	       ankle_angle_l	         mtp_angle_l	    lumbar_extension	      lumbar_bending	     lumbar_rotation	 ercspn_r/activation	 intobl_r/activation	 extobl_r/activation	    abd_r/activation	    add_r/activation	hamstrings_r/activation	bifemsh_r/activation	glut_max_r/activation	iliopsoas_r/activation	rect_fem_r/activation	  vasti_r/activation	gastroc_r/activation	 soleus_r/activation	tib_ant_r/activation	 ercspn_l/activation	 intobl_l/activation	 extobl_l/activation	    abd_l/activation	    add_l/activation	hamstrings_l/activation	bifemsh_l/activation	glut_max_l/activation	iliopsoas_l/activation	rect_fem_l/activation	  vasti_l/activation	gastroc_l/activation	 soleus_l/activation	tib_ant_l/activation	
          2.32408580	         -0.48637417	          1.34120186	        -10.16809518	          1.39445148	          0.87237657	          0.02559853	        -11.75150071	         -0.75847794	          2.40721414	         -5.40785066	         11.69080691	         16.15167598	         22.81958724	         -1.06082082	         -3.42735950	        -11.89725040	         -0.20152445	          0.22680437	         -5.74361587	          2.90117705	         -1.66664964	          0.03848953	          0.00999999	          0.00999999	          0.06097473	          0.00999999	          0.01000017	          0.11156968	          0.01000000	          0.15229259	          0.01000001	          0.00999999	          0.10810408	          0.22328127	          0.02414024	          0.11982106	          0.11635913	          0.01153563	          0.01000000	          0.08723080	          0.02359184	          0.10498019	          0.03714277	          0.01583147	          0.01168016	          0.01000002	          0.01447571	          0.01088078	          0.26917471	
          2.33957970	         -0.55732517	          1.17921787	         -9.74481231	          1.40545363	          0.87106255	          0.02429952	        -12.00757327	         -0.62162460	          1.60756683	         -6.32519438	         11.63684479	         17.33311913	         22.34651939	         -0.85931697	         -3.20310587	        -12.32459378	         -0.31093837	          0.22365226	         -5.64936356	          2.56192979	         -1.50039382	          0.05794839	          0.00999999	          0.00999999	          0.04937161	          0.01000000	          0.01000039	          0.08867181	          0.01000001	          0.12103699	          0.01000004	          0.01000000	          0.10562413	          0.22738571	          0.01918585	          0.11482410	          0.10630230	          0.01000000	          0.00999999	          0.09291286	          0.03372751	          0.08612813	          0.04973812	          0.01258232	          0.01000000	          0.00999999	          0.01150481	          0.00999999	          0.28649951	
          2.35507361	         -0.62431168	          1.02103813	         -9.26891207	          1.41670070	          0.86998415	          0.02285209	        -12.19502536	         -0.48706158	          0.77567108	         -7.39645736	         11.46232846	         18.57811926	         21.88942504	         -0.67910783	         -2.94993247	        -12.71722161	         -0.52798747	          0.22022985	         -5.53673537	          2.19643627	         -1.31446623	          0.07264963	          0.00999999	          0.00999999	          0.03923891	          0.01000000	          0.01000079	          0.07047336	          0.01000001	          0.09619611	          0.01583159	          0.01365246	          0.08750826	          0.22681625	          0.01524826	          0.11509751	          0.10019623	          0.01000000	          0.02820201	          0.10286485	          0.03926672	          0.06845173	          0.04804204	          0.01000001	          0.01000000	          0.01284527	          0.01000000	          0.00999999	          0.30487603	
          2.37056751	         -0.68650976	          0.86309028	         -8.74027048	          1.42812982	          0.86927150	          0.02124571	        -12.29514211	         -0.35383906	         -0.08949963	         -8.63815135	         11.11683861	         19.87482744	         21.49678530	         -0.51558487	         -2.72556344	        -13.21549196	         -0.67976547	          0.21671993	         -5.40870905	          1.81528225	         -1.11088154	          0.08671398	          0.00999999	          0.00999999	          0.03118576	          0.01000000	          0.01000053	          0.05600984	          0.01000003	          0.07645341	          0.01258247	          0.02069787	          0.06954861	          0.22112637	          0.01211880	          0.11455062	          0.07963261	          0.01000000	          0.04646722	          0.10527702	          0.04526228	          0.05440313	          0.04770074	          0.01000000	          0.01000000	          0.03018922	          0.01000000	          0.00999999	          0.31454346	
          2.38606142	         -0.74422972	          0.70214193	         -8.16490982	          1.43970506	          0.86908992	          0.01949136	        -12.30220063	         -0.22274289	         -0.98653088	        -10.03664961	         10.52105505	         21.21661491	         21.13912192	         -0.36036024	         -2.51918321	        -13.80491653	         -0.60531839	          0.24859043	         -5.26151056	          1.42966781	         -0.89279052	          0.10138353	          0.00999999	          0.00999999	          0.02478539	          0.01000002	          0.01271995	          0.04451473	          0.01428538	          0.06076259	          0.01000018	          0.02887031	          0.05527488	          0.21025055	          0.00999999	          0.11296669	          0.06328930	          0.01000000	          0.05930601	          0.10297204	          0.04857085	          0.04323778	          0.05527759	          0.01000001	          0.01000001	          0.04024312	          0.01000000	          0.00999999	          0.29993777	
          2.40155533	         -0.79815707	          0.53462591	         -7.55144448	          1.45138355	          0.86956280	          0.01760727	        -12.21384815	         -0.09313767	         -1.92209018	        -11.56999026	          9.61853145	         22.57660457	         20.78144282	         -0.20632742	         -2.29237369	        -14.44647864	         -0.23159920	          0.37677181	         -5.09220695	          1.05009848	         -0.66107827	          0.11036983	          0.00999999	          0.00999999	          0.01969859	          0.02230438	          0.01503841	          0.03537881	          0.01583376	          0.04829205	          0.01000002	          0.03690736	          0.04393060	          0.19370977	          0.00999999	          0.10899853	          0.05030020	          0.00999999	          0.06416508	          0.10307700	          0.05232390	          0.03436394	          0.06755048	          0.01000000	          0.01000000	          0.04792215	          0.01000000	          0.00999999	          0.26518521	
          2.41704923	         -0.84923118	          0.35456522	         -6.90618195	          1.46311641	          0.87070784	          0.01561699	        -12.02439610	          0.03905466	         -2.90147772	        -13.23063233	          8.41460132	         23.88725333	         20.37553646	         -0.05429527	         -2.01729509	        -15.03519025	          0.32408166	          0.57845849	         -4.90158233	          0.68601151	         -0.41794475	          0.11433261	          0.00999999	          0.00999999	          0.01565577	          0.03707746	          0.01545080	          0.02811789	          0.01258418	          0.03838089	          0.01000001	          0.04420303	          0.03491456	          0.17197972	          0.00999999	          0.10470067	          0.03997690	          0.00999999	          0.07118502	          0.11203387	          0.05781567	          0.02731132	          0.07207598	          0.01000000	          0.01000000	          0.04877117	          0.01000000	          0.00999999	          0.23281572	
